<mxfile host="app.diagrams.net" agent="Mozilla/5.0 (Macintosh; Intel Mac OS X 10_15_7) AppleWebKit/605.1.15 (KHTML, like Gecko) Version/18.3 Safari/605.1.15" version="26.0.14">
  <diagram name="Page-1" id="e7JIrzoSqEnFolrPraUH">
    <mxGraphModel dx="1686" dy="1119" grid="1" gridSize="10" guides="1" tooltips="1" connect="1" arrows="1" fold="1" page="1" pageScale="1" pageWidth="1600" pageHeight="900" math="0" shadow="0">
      <root>
        <mxCell id="0" />
        <mxCell id="1" parent="0" />
        <mxCell id="kPAVEtL3coRbAUNOqb-5-1" value="" style="rounded=1;whiteSpace=wrap;html=1;rotation=90;" vertex="1" parent="1">
          <mxGeometry x="-98.75" y="299.35" width="437.5" height="83.81" as="geometry" />
        </mxCell>
        <mxCell id="kPAVEtL3coRbAUNOqb-5-2" value="" style="rounded=0;whiteSpace=wrap;html=1;" vertex="1" parent="1">
          <mxGeometry x="90.00000000000001" y="140.95238095238096" width="59.999999999999986" height="62.857142857142854" as="geometry" />
        </mxCell>
        <mxCell id="kPAVEtL3coRbAUNOqb-5-4" value="" style="rounded=0;whiteSpace=wrap;html=1;" vertex="1" parent="1">
          <mxGeometry x="90.00000000000001" y="392.38095238095235" width="59.999999999999986" height="62.857142857142854" as="geometry" />
        </mxCell>
        <mxCell id="kPAVEtL3coRbAUNOqb-5-5" value="" style="rounded=0;whiteSpace=wrap;html=1;" vertex="1" parent="1">
          <mxGeometry x="90.00000000000001" y="308.57142857142856" width="59.999999999999986" height="62.857142857142854" as="geometry" />
        </mxCell>
        <mxCell id="kPAVEtL3coRbAUNOqb-5-6" value="" style="rounded=0;whiteSpace=wrap;html=1;" vertex="1" parent="1">
          <mxGeometry x="90.00000000000001" y="224.76190476190476" width="59.999999999999986" height="62.857142857142854" as="geometry" />
        </mxCell>
        <mxCell id="kPAVEtL3coRbAUNOqb-5-8" value="" style="rounded=0;whiteSpace=wrap;html=1;" vertex="1" parent="1">
          <mxGeometry x="90.00000000000001" y="476.1904761904762" width="59.999999999999986" height="62.857142857142854" as="geometry" />
        </mxCell>
        <mxCell id="kPAVEtL3coRbAUNOqb-5-42" value="" style="group" vertex="1" connectable="0" parent="1">
          <mxGeometry x="240" y="115" width="280" height="445" as="geometry" />
        </mxCell>
        <mxCell id="kPAVEtL3coRbAUNOqb-5-18" value="" style="rounded=1;whiteSpace=wrap;html=1;rotation=90;" vertex="1" parent="kPAVEtL3coRbAUNOqb-5-42">
          <mxGeometry x="-82.5" y="82.5" width="445" height="280" as="geometry" />
        </mxCell>
        <mxCell id="kPAVEtL3coRbAUNOqb-5-19" value="&lt;font style=&quot;font-size: 18px;&quot;&gt;CNN Encoder&lt;/font&gt;" style="shape=trapezoid;perimeter=trapezoidPerimeter;whiteSpace=wrap;html=1;fixedSize=1;rotation=90;" vertex="1" parent="kPAVEtL3coRbAUNOqb-5-42">
          <mxGeometry x="-120" y="225" width="320" height="40" as="geometry" />
        </mxCell>
        <mxCell id="kPAVEtL3coRbAUNOqb-5-20" value="&lt;font style=&quot;font-size: 18px;&quot;&gt;Linear Projection of Flattened Frames&lt;/font&gt;" style="rounded=1;whiteSpace=wrap;html=1;rotation=90;" vertex="1" parent="kPAVEtL3coRbAUNOqb-5-42">
          <mxGeometry x="-42.5" y="222.5" width="315" height="40" as="geometry" />
        </mxCell>
        <mxCell id="kPAVEtL3coRbAUNOqb-5-21" value="&lt;font style=&quot;font-size: 18px;&quot;&gt;Embedded Sequence&lt;/font&gt;" style="rounded=1;whiteSpace=wrap;html=1;rotation=90;" vertex="1" parent="kPAVEtL3coRbAUNOqb-5-42">
          <mxGeometry x="60" y="205" width="350" height="40" as="geometry" />
        </mxCell>
        <mxCell id="kPAVEtL3coRbAUNOqb-5-43" value="" style="group" vertex="1" connectable="0" parent="1">
          <mxGeometry x="582.5" y="120" width="280" height="437.5" as="geometry" />
        </mxCell>
        <mxCell id="kPAVEtL3coRbAUNOqb-5-22" value="" style="rounded=1;whiteSpace=wrap;html=1;rotation=90;" vertex="1" parent="kPAVEtL3coRbAUNOqb-5-43">
          <mxGeometry x="-78.75" y="78.75" width="437.5" height="280" as="geometry" />
        </mxCell>
        <mxCell id="kPAVEtL3coRbAUNOqb-5-25" value="&lt;font style=&quot;font-size: 18px;&quot;&gt;Embedded Sequence&lt;/font&gt;" style="rounded=1;whiteSpace=wrap;html=1;rotation=90;" vertex="1" parent="kPAVEtL3coRbAUNOqb-5-43">
          <mxGeometry x="-122.5" y="197.5" width="350" height="40" as="geometry" />
        </mxCell>
        <mxCell id="kPAVEtL3coRbAUNOqb-5-26" value="&lt;font style=&quot;font-size: 18px;&quot;&gt;Embedded Sequence&lt;/font&gt;" style="rounded=1;whiteSpace=wrap;html=1;rotation=90;" vertex="1" parent="kPAVEtL3coRbAUNOqb-5-43">
          <mxGeometry x="57.5" y="197.5" width="350" height="40" as="geometry" />
        </mxCell>
        <mxCell id="kPAVEtL3coRbAUNOqb-5-44" value="" style="group" vertex="1" connectable="0" parent="1">
          <mxGeometry x="932.5" y="117.44" width="280" height="437.50000000000006" as="geometry" />
        </mxCell>
        <mxCell id="kPAVEtL3coRbAUNOqb-5-27" value="" style="rounded=1;whiteSpace=wrap;html=1;rotation=90;" vertex="1" parent="kPAVEtL3coRbAUNOqb-5-44">
          <mxGeometry x="-78.75" y="78.75" width="437.5" height="280" as="geometry" />
        </mxCell>
        <mxCell id="kPAVEtL3coRbAUNOqb-5-28" value="&lt;font style=&quot;font-size: 18px;&quot;&gt;Embedded Sequence&lt;/font&gt;" style="rounded=1;whiteSpace=wrap;html=1;rotation=90;" vertex="1" parent="kPAVEtL3coRbAUNOqb-5-44">
          <mxGeometry x="-122.5" y="197.5" width="350" height="40" as="geometry" />
        </mxCell>
        <mxCell id="kPAVEtL3coRbAUNOqb-5-30" value="" style="rounded=1;whiteSpace=wrap;html=1;" vertex="1" parent="kPAVEtL3coRbAUNOqb-5-44">
          <mxGeometry x="107.5" y="42.56" width="150" height="60" as="geometry" />
        </mxCell>
        <mxCell id="kPAVEtL3coRbAUNOqb-5-31" value="" style="rounded=1;whiteSpace=wrap;html=1;" vertex="1" parent="kPAVEtL3coRbAUNOqb-5-44">
          <mxGeometry x="107.5" y="312.56" width="150" height="60" as="geometry" />
        </mxCell>
        <mxCell id="kPAVEtL3coRbAUNOqb-5-32" value="" style="rounded=1;whiteSpace=wrap;html=1;" vertex="1" parent="kPAVEtL3coRbAUNOqb-5-44">
          <mxGeometry x="107.5" y="232.56" width="150" height="60" as="geometry" />
        </mxCell>
        <mxCell id="kPAVEtL3coRbAUNOqb-5-33" value="" style="rounded=1;whiteSpace=wrap;html=1;" vertex="1" parent="kPAVEtL3coRbAUNOqb-5-44">
          <mxGeometry x="107.5" y="121.91" width="150" height="60" as="geometry" />
        </mxCell>
        <mxCell id="kPAVEtL3coRbAUNOqb-5-45" value="" style="group" vertex="1" connectable="0" parent="1">
          <mxGeometry x="1260" y="160" width="220" height="330" as="geometry" />
        </mxCell>
        <mxCell id="kPAVEtL3coRbAUNOqb-5-34" value="" style="rounded=1;whiteSpace=wrap;html=1;" vertex="1" parent="kPAVEtL3coRbAUNOqb-5-45">
          <mxGeometry width="80" height="60" as="geometry" />
        </mxCell>
        <mxCell id="kPAVEtL3coRbAUNOqb-5-35" value="" style="rounded=1;whiteSpace=wrap;html=1;" vertex="1" parent="kPAVEtL3coRbAUNOqb-5-45">
          <mxGeometry y="79.35" width="80" height="60" as="geometry" />
        </mxCell>
        <mxCell id="kPAVEtL3coRbAUNOqb-5-36" value="" style="rounded=1;whiteSpace=wrap;html=1;" vertex="1" parent="kPAVEtL3coRbAUNOqb-5-45">
          <mxGeometry y="190" width="80" height="60" as="geometry" />
        </mxCell>
        <mxCell id="kPAVEtL3coRbAUNOqb-5-37" value="" style="rounded=1;whiteSpace=wrap;html=1;" vertex="1" parent="kPAVEtL3coRbAUNOqb-5-45">
          <mxGeometry y="269.35" width="80" height="60" as="geometry" />
        </mxCell>
        <mxCell id="kPAVEtL3coRbAUNOqb-5-38" value="" style="rounded=1;whiteSpace=wrap;html=1;" vertex="1" parent="kPAVEtL3coRbAUNOqb-5-45">
          <mxGeometry x="100" width="120" height="60" as="geometry" />
        </mxCell>
        <mxCell id="kPAVEtL3coRbAUNOqb-5-39" value="" style="rounded=1;whiteSpace=wrap;html=1;" vertex="1" parent="kPAVEtL3coRbAUNOqb-5-45">
          <mxGeometry x="100" y="79.35" width="120" height="60" as="geometry" />
        </mxCell>
        <mxCell id="kPAVEtL3coRbAUNOqb-5-40" value="" style="rounded=1;whiteSpace=wrap;html=1;" vertex="1" parent="kPAVEtL3coRbAUNOqb-5-45">
          <mxGeometry x="100" y="190" width="120" height="60" as="geometry" />
        </mxCell>
        <mxCell id="kPAVEtL3coRbAUNOqb-5-41" value="" style="rounded=1;whiteSpace=wrap;html=1;" vertex="1" parent="kPAVEtL3coRbAUNOqb-5-45">
          <mxGeometry x="100" y="270" width="120" height="60" as="geometry" />
        </mxCell>
      </root>
    </mxGraphModel>
  </diagram>
</mxfile>
